<?xml version="1.0" encoding="utf-8"?>
<!-- Generator: Adobe Illustrator 25.2.0, SVG Export Plug-In . SVG Version: 6.00 Build 0)  -->
<svg version="1.1" xmlns="http://www.w3.org/2000/svg" xmlns:xlink="http://www.w3.org/1999/xlink" x="0px" y="0px"
	 viewBox="0 0 917 600" style="enable-background:new 0 0 917 600;" xml:space="preserve">
<style type="text/css">
	.st0{fill:#3D3D3D;}
	.st1{fill:#91FF86;}
	.st2{fill:#3B483B;}
	.st3{fill:#50FBFF;}
</style>
<g id="Ebene_1">
	<g>
		<path class="st0" d="M904.363,600H12.637C5.658,600,0,594.342,0,587.363V12.637C0,5.658,5.658,0,12.637,0H902
			c8.284,0,15,6.716,15,15v572.363C917,594.342,911.342,600,904.363,600z"/>
	</g>
</g>
<g id="Ebene_2">
	<g>
		<g>
			<g>
				
					<rect x="543" y="79.088" transform="matrix(0.679 -0.7342 0.7342 0.679 30.23 462.9574)" class="st1" width="3" height="235.646"/>
			</g>
			<g>
				
					<rect x="681" y="263.284" transform="matrix(0.8691 -0.4946 0.4946 0.8691 -92.3967 385.6392)" class="st1" width="3" height="208.255"/>
			</g>
			<g>
				
					<rect x="477.3" y="365.411" transform="matrix(0.4891 -0.8722 0.8722 0.4891 -23.4707 693.7496)" class="st1" width="206.4" height="3.001"/>
			</g>
			<g>
				
					<rect x="335" y="263.349" transform="matrix(0.8703 -0.4925 0.4925 0.8703 -137.5617 213.456)" class="st1" width="3" height="209.124"/>
			</g>
			<g>
				
					<rect x="128.502" y="366.911" transform="matrix(0.4906 -0.8714 0.8714 0.4906 -202.0818 391.1596)" class="st1" width="209.995" height="3"/>
			</g>
			<g>
				
					<rect x="254.177" y="195.911" transform="matrix(0.7341 -0.6791 0.6791 0.7341 -35.1322 305.1075)" class="st1" width="235.646" height="3"/>
			</g>
			<g>
				<circle class="st2" cx="458.5" cy="117.411" r="41.5"/>
				<path class="st1" d="M458.5,77.411c22.056,0,40,17.944,40,40s-17.944,40-40,40s-40-17.944-40-40S436.444,77.411,458.5,77.411
					 M458.5,74.411c-23.748,0-43,19.252-43,43s19.252,43,43,43s43-19.252,43-43S482.248,74.411,458.5,74.411L458.5,74.411z"/>
			</g>
			<g>
				<circle class="st2" cx="285.5" cy="277.411" r="41.5"/>
				<path class="st1" d="M285.5,237.411c22.056,0,40,17.944,40,40c0,22.056-17.944,40-40,40s-40-17.944-40-40
					C245.5,255.355,263.444,237.411,285.5,237.411 M285.5,234.411c-23.748,0-43,19.252-43,43s19.252,43,43,43s43-19.252,43-43
					S309.248,234.411,285.5,234.411L285.5,234.411z"/>
			</g>
			<g>
				<circle class="st2" cx="631.5" cy="277.411" r="41.5"/>
				<path class="st1" d="M631.5,237.411c22.056,0,40,17.944,40,40c0,22.056-17.944,40-40,40s-40-17.944-40-40
					C591.5,255.355,609.444,237.411,631.5,237.411 M631.5,234.411c-23.748,0-43,19.252-43,43s19.252,43,43,43s43-19.252,43-43
					S655.248,234.411,631.5,234.411L631.5,234.411z"/>
			</g>
			<g>
				<circle class="st2" cx="182.5" cy="458.411" r="41.5"/>
				<path class="st1" d="M182.5,418.411c22.056,0,40,17.944,40,40s-17.944,40-40,40s-40-17.944-40-40S160.444,418.411,182.5,418.411
					 M182.5,415.411c-23.748,0-43,19.252-43,43s19.252,43,43,43s43-19.252,43-43S206.248,415.411,182.5,415.411L182.5,415.411z"/>
			</g>
			<g>
				<circle class="st2" cx="388.5" cy="458.411" r="41.5"/>
				<path class="st1" d="M388.5,418.411c22.056,0,40,17.944,40,40s-17.944,40-40,40s-40-17.944-40-40S366.444,418.411,388.5,418.411
					 M388.5,415.411c-23.748,0-43,19.252-43,43s19.252,43,43,43s43-19.252,43-43S412.248,415.411,388.5,415.411L388.5,415.411z"/>
			</g>
			<g>
				<circle class="st2" cx="528.5" cy="458.411" r="41.5"/>
				<path class="st1" d="M528.5,418.411c22.056,0,40,17.944,40,40s-17.944,40-40,40c-22.056,0-40-17.944-40-40
					S506.444,418.411,528.5,418.411 M528.5,415.411c-23.748,0-43,19.252-43,43s19.252,43,43,43c23.748,0,43-19.252,43-43
					S552.248,415.411,528.5,415.411L528.5,415.411z"/>
			</g>
			<g>
				<circle class="st2" cx="734.5" cy="458.411" r="41.5"/>
				<path class="st1" d="M734.5,418.411c22.056,0,40,17.944,40,40s-17.944,40-40,40s-40-17.944-40-40S712.444,418.411,734.5,418.411
					 M734.5,415.411c-23.748,0-43,19.252-43,43s19.252,43,43,43s43-19.252,43-43S758.248,415.411,734.5,415.411L734.5,415.411z"/>
			</g>
			<g>
				<path class="st1" d="M627.35,282.588l-2.66,8.055h-3.42l8.701-25.608h3.988l8.74,25.608h-3.533l-2.736-8.055H627.35z
					 M636.43,260.703v2.089h-9.08v-2.089H636.43z M635.746,280.004l-2.508-7.371c-0.57-1.672-0.951-3.191-1.33-4.673h-0.076
					c-0.379,1.52-0.797,3.078-1.291,4.635l-2.508,7.409H635.746z"/>
			</g>
			<g>
				<path class="st1" d="M280.349,280.588l-2.66,8.055h-3.419l8.7-25.608h3.989l8.739,25.608h-3.533l-2.736-8.055H280.349z
					 M288.746,278.004l-2.508-7.371c-0.569-1.672-0.95-3.191-1.33-4.673h-0.075c-0.38,1.52-0.798,3.078-1.292,4.635l-2.508,7.409
					H288.746z"/>
			</g>
			<g>
				<path class="st1" d="M175.751,467.615c1.481,0.912,3.647,1.672,5.927,1.672c3.382,0,5.357-1.786,5.357-4.37
					c0-2.394-1.367-3.761-4.825-5.091c-4.18-1.481-6.763-3.647-6.763-7.257c0-3.989,3.306-6.953,8.282-6.953
					c2.622,0,4.521,0.608,5.661,1.254l-0.911,2.698c-0.836-0.456-2.546-1.216-4.863-1.216c-3.496,0-4.826,2.09-4.826,3.837
					c0,2.394,1.559,3.571,5.092,4.939c4.331,1.671,6.535,3.761,6.535,7.522c0,3.952-2.926,7.371-8.967,7.371
					c-2.47,0-5.167-0.722-6.535-1.634L175.751,467.615z"/>
			</g>
			<g>
				<g>
					<path class="st1" d="M381.751,467.615c1.481,0.912,3.647,1.672,5.927,1.672c3.382,0,5.357-1.786,5.357-4.37
						c0-2.394-1.367-3.761-4.825-5.091c-4.18-1.481-6.763-3.647-6.763-7.257c0-3.989,3.306-6.953,8.282-6.953
						c2.622,0,4.521,0.608,5.661,1.254l-0.911,2.698c-0.836-0.456-2.546-1.216-4.863-1.216c-3.496,0-4.826,2.09-4.826,3.837
						c0,2.394,1.559,3.571,5.092,4.939c4.331,1.671,6.535,3.761,6.535,7.522c0,3.952-2.926,7.371-8.967,7.371
						c-2.47,0-5.167-0.722-6.535-1.634L381.751,467.615z"/>
				</g>
				<g>
					<path class="st1" d="M393.268,441.086v2.089h-9.08v-2.089H393.268z"/>
				</g>
			</g>
			<g>
				<path class="st1" d="M521.752,467.615c1.48,0.912,3.646,1.672,5.926,1.672c3.383,0,5.357-1.786,5.357-4.37
					c0-2.394-1.367-3.761-4.824-5.091c-4.18-1.481-6.764-3.647-6.764-7.257c0-3.989,3.307-6.953,8.283-6.953
					c2.621,0,4.521,0.608,5.66,1.254l-0.91,2.698c-0.836-0.456-2.547-1.216-4.863-1.216c-3.496,0-4.826,2.09-4.826,3.837
					c0,2.394,1.559,3.571,5.092,4.939c4.33,1.671,6.535,3.761,6.535,7.522c0,3.952-2.926,7.371-8.967,7.371
					c-2.471,0-5.168-0.722-6.535-1.634L521.752,467.615z"/>
			</g>
			<g>
				<g>
					<path class="st1" d="M727.752,467.615c1.48,0.912,3.646,1.672,5.926,1.672c3.383,0,5.357-1.786,5.357-4.37
						c0-2.394-1.367-3.761-4.824-5.091c-4.18-1.481-6.764-3.647-6.764-7.257c0-3.989,3.307-6.953,8.283-6.953
						c2.621,0,4.521,0.608,5.66,1.254l-0.91,2.698c-0.836-0.456-2.547-1.216-4.863-1.216c-3.496,0-4.826,2.09-4.826,3.837
						c0,2.394,1.559,3.571,5.092,4.939c4.33,1.671,6.535,3.761,6.535,7.522c0,3.952-2.926,7.371-8.967,7.371
						c-2.471,0-5.168-0.722-6.535-1.634L727.752,467.615z"/>
				</g>
				<g>
					<path class="st1" d="M739.268,441.086v2.089h-9.08v-2.089H739.268z"/>
				</g>
			</g>
			<g>
				<path class="st1" d="M561.123,182.388c0,4.64-1.723,7.202-4.746,7.202c-2.666,0-4.472-2.499-4.514-7.013
					c0-4.577,1.974-7.097,4.745-7.097C559.484,175.48,561.123,178.042,561.123,182.388z M553.711,182.598
					c0,3.548,1.092,5.564,2.771,5.564c1.89,0,2.793-2.205,2.793-5.69c0-3.359-0.861-5.564-2.771-5.564
					C554.887,176.908,553.711,178.881,553.711,182.598z"/>
				<path class="st1" d="M562.972,188.267c0-0.777,0.524-1.323,1.26-1.323s1.239,0.546,1.239,1.323c0,0.756-0.483,1.323-1.26,1.323
					C563.476,189.589,562.972,189.022,562.972,188.267z"/>
				<path class="st1" d="M576.031,175.711v1.218l-5.941,12.43h-1.91l5.92-12.073v-0.042h-6.676v-1.533H576.031z"/>
			</g>
			<g>
				<path class="st1" d="M729.123,519.388c0,4.64-1.723,7.202-4.746,7.202c-2.666,0-4.472-2.499-4.514-7.013
					c0-4.577,1.974-7.097,4.745-7.097C727.484,512.48,729.123,515.042,729.123,519.388z M721.711,519.598
					c0,3.548,1.092,5.564,2.771,5.564c1.89,0,2.793-2.205,2.793-5.69c0-3.359-0.861-5.564-2.771-5.564
					C722.887,513.908,721.711,515.881,721.711,519.598z"/>
				<path class="st1" d="M730.972,525.267c0-0.777,0.524-1.323,1.26-1.323s1.239,0.546,1.239,1.323c0,0.756-0.483,1.323-1.26,1.323
					C731.476,526.589,730.972,526.022,730.972,525.267z"/>
				<path class="st1" d="M742.961,514.013c-0.378-0.021-0.861,0-1.386,0.084c-2.897,0.483-4.431,2.604-4.745,4.85h0.062
					c0.651-0.861,1.785-1.575,3.297-1.575c2.414,0,4.115,1.743,4.115,4.409c0,2.499-1.701,4.808-4.535,4.808
					c-2.918,0-4.829-2.268-4.829-5.816c0-2.688,0.966-4.808,2.31-6.152c1.134-1.113,2.646-1.806,4.367-2.016
					c0.546-0.084,1.008-0.105,1.344-0.105V514.013z M742.436,521.886c0-1.953-1.112-3.128-2.812-3.128
					c-1.113,0-2.143,0.693-2.646,1.68c-0.125,0.21-0.209,0.483-0.209,0.819c0.041,2.247,1.07,3.905,3.002,3.905
					C741.365,525.162,742.436,523.839,742.436,521.886z"/>
				<path class="st1" d="M746.385,524.238c0.525,0.336,1.742,0.861,3.023,0.861c2.373,0,3.107-1.512,3.086-2.646
					c-0.021-1.911-1.742-2.729-3.527-2.729h-1.028v-1.386h1.028c1.344,0,3.045-0.693,3.045-2.31c0-1.092-0.693-2.058-2.394-2.058
					c-1.092,0-2.142,0.483-2.729,0.903l-0.482-1.344c0.713-0.525,2.1-1.05,3.568-1.05c2.688,0,3.906,1.596,3.906,3.254
					c0,1.407-0.84,2.604-2.52,3.212v0.042c1.68,0.336,3.044,1.596,3.044,3.506c0,2.184-1.7,4.094-4.976,4.094
					c-1.533,0-2.877-0.483-3.549-0.924L746.385,524.238z"/>
			</g>
			<g>
				<path class="st3" d="M353.123,182.388c0,4.64-1.723,7.202-4.746,7.202c-2.666,0-4.472-2.499-4.514-7.013
					c0-4.577,1.974-7.097,4.745-7.097C351.484,175.48,353.123,178.042,353.123,182.388z M345.711,182.598
					c0,3.548,1.092,5.564,2.771,5.564c1.89,0,2.793-2.205,2.793-5.69c0-3.359-0.861-5.564-2.771-5.564
					C346.887,176.908,345.711,178.881,345.711,182.598z"/>
				<path class="st3" d="M354.972,188.267c0-0.777,0.524-1.323,1.26-1.323s1.239,0.546,1.239,1.323c0,0.756-0.483,1.323-1.26,1.323
					C355.476,189.589,354.972,189.022,354.972,188.267z"/>
				<path class="st3" d="M359.612,187.238c0.524,0.336,1.743,0.861,3.023,0.861c2.372,0,3.107-1.512,3.087-2.646
					c-0.021-1.911-1.743-2.729-3.527-2.729h-1.029v-1.386h1.029c1.344,0,3.044-0.693,3.044-2.31c0-1.092-0.692-2.058-2.394-2.058
					c-1.092,0-2.142,0.483-2.729,0.903l-0.483-1.344c0.715-0.525,2.1-1.05,3.57-1.05c2.688,0,3.904,1.596,3.904,3.254
					c0,1.407-0.84,2.604-2.52,3.212v0.042c1.68,0.336,3.045,1.596,3.045,3.506c0,2.184-1.701,4.094-4.977,4.094
					c-1.532,0-2.876-0.483-3.548-0.924L359.612,187.238z"/>
			</g>
			<g>
				<path class="st1" d="M355.123,361.388c0,4.64-1.723,7.202-4.746,7.202c-2.666,0-4.472-2.499-4.514-7.013
					c0-4.577,1.974-7.097,4.745-7.097C353.484,354.48,355.123,357.042,355.123,361.388z M347.711,361.598
					c0,3.548,1.092,5.564,2.771,5.564c1.89,0,2.793-2.205,2.793-5.69c0-3.359-0.861-5.564-2.771-5.564
					C348.887,355.908,347.711,357.881,347.711,361.598z"/>
				<path class="st1" d="M356.972,367.267c0-0.777,0.524-1.323,1.26-1.323s1.239,0.546,1.239,1.323c0,0.756-0.483,1.323-1.26,1.323
					C357.476,368.589,356.972,368.022,356.972,367.267z"/>
				<path class="st1" d="M365.182,356.433h-0.042l-2.372,1.281l-0.357-1.407l2.981-1.596h1.575v13.647h-1.785V356.433z"/>
			</g>
			<g>
				<path class="st3" d="M558.123,361.388c0,4.64-1.723,7.202-4.746,7.202c-2.666,0-4.472-2.499-4.514-7.013
					c0-4.577,1.974-7.097,4.745-7.097C556.484,354.48,558.123,357.042,558.123,361.388z M550.711,361.598
					c0,3.548,1.092,5.564,2.771,5.564c1.89,0,2.793-2.205,2.793-5.69c0-3.359-0.861-5.564-2.771-5.564
					C551.887,355.908,550.711,357.881,550.711,361.598z"/>
				<path class="st3" d="M559.972,367.267c0-0.777,0.524-1.323,1.26-1.323s1.239,0.546,1.239,1.323c0,0.756-0.483,1.323-1.26,1.323
					C560.476,368.589,559.972,368.022,559.972,367.267z"/>
				<path class="st3" d="M568.182,356.433h-0.042l-2.372,1.281l-0.357-1.407l2.981-1.596h1.575v13.647h-1.785V356.433z"/>
			</g>
			<g>
				<path class="st3" d="M209.123,360.388c0,4.64-1.723,7.202-4.746,7.202c-2.666,0-4.472-2.499-4.514-7.013
					c0-4.577,1.974-7.097,4.745-7.097C207.484,353.48,209.123,356.042,209.123,360.388z M201.711,360.598
					c0,3.548,1.092,5.564,2.771,5.564c1.89,0,2.793-2.205,2.793-5.69c0-3.359-0.861-5.564-2.771-5.564
					C202.887,354.908,201.711,356.881,201.711,360.598z"/>
				<path class="st3" d="M210.972,366.267c0-0.777,0.524-1.323,1.26-1.323s1.239,0.546,1.239,1.323c0,0.756-0.483,1.323-1.26,1.323
					C211.476,367.589,210.972,367.022,210.972,366.267z"/>
				<path class="st3" d="M216.242,366.057c0.398,0.042,0.861,0,1.49-0.063c1.071-0.147,2.079-0.588,2.855-1.323
					c0.903-0.819,1.555-2.016,1.807-3.632h-0.063c-0.756,0.924-1.848,1.47-3.212,1.47c-2.457,0-4.031-1.848-4.031-4.178
					c0-2.583,1.868-4.85,4.66-4.85c2.793,0,4.515,2.268,4.515,5.753c0,3.002-1.008,5.102-2.352,6.404
					c-1.05,1.029-2.499,1.659-3.968,1.827c-0.672,0.105-1.26,0.126-1.701,0.105V366.057z M216.914,358.204
					c0,1.701,1.029,2.897,2.625,2.897c1.238,0,2.204-0.609,2.688-1.428c0.104-0.168,0.168-0.378,0.168-0.672
					c0-2.331-0.861-4.115-2.793-4.115C218.027,354.887,216.914,356.272,216.914,358.204z"/>
			</g>
			<g>
				<path class="st3" d="M699.881,360.349c0,4.64-1.723,7.202-4.746,7.202c-2.666,0-4.472-2.499-4.514-7.013
					c0-4.577,1.974-7.097,4.745-7.097C698.242,353.441,699.881,356.003,699.881,360.349z M692.469,360.559
					c0,3.548,1.092,5.564,2.771,5.564c1.89,0,2.793-2.205,2.793-5.69c0-3.359-0.861-5.564-2.771-5.564
					C693.645,354.869,692.469,356.843,692.469,360.559z"/>
				<path class="st3" d="M701.729,366.228c0-0.777,0.524-1.323,1.26-1.323s1.239,0.546,1.239,1.323c0,0.756-0.483,1.323-1.26,1.323
					C702.233,367.551,701.729,366.984,701.729,366.228z"/>
				<path class="st3" d="M707,366.018c0.398,0.042,0.861,0,1.49-0.063c1.071-0.147,2.079-0.588,2.855-1.323
					c0.903-0.819,1.555-2.016,1.807-3.632h-0.063c-0.756,0.924-1.848,1.47-3.212,1.47c-2.457,0-4.031-1.848-4.031-4.178
					c0-2.583,1.868-4.85,4.66-4.85c2.793,0,4.515,2.268,4.515,5.753c0,3.002-1.008,5.102-2.352,6.404
					c-1.05,1.029-2.499,1.659-3.968,1.827c-0.672,0.105-1.26,0.126-1.701,0.105V366.018z M707.672,358.166
					c0,1.701,1.029,2.897,2.625,2.897c1.238,0,2.204-0.609,2.688-1.428c0.104-0.168,0.168-0.378,0.168-0.672
					c0-2.331-0.861-4.115-2.793-4.115C708.785,354.848,707.672,356.234,707.672,358.166z"/>
			</g>
			<g>
				<path class="st3" d="M174.123,518.388c0,4.641-1.723,7.201-4.746,7.201c-2.666,0-4.472-2.498-4.514-7.012
					c0-4.578,1.974-7.098,4.745-7.098C172.484,511.479,174.123,514.042,174.123,518.388z M166.711,518.598
					c0,3.548,1.092,5.563,2.771,5.563c1.89,0,2.793-2.204,2.793-5.689c0-3.359-0.861-5.564-2.771-5.564
					C167.887,512.907,166.711,514.882,166.711,518.598z"/>
				<path class="st3" d="M175.972,524.267c0-0.777,0.524-1.322,1.26-1.322s1.239,0.545,1.239,1.322c0,0.756-0.483,1.322-1.26,1.322
					C176.476,525.589,175.972,525.022,175.972,524.267z"/>
				<path class="st3" d="M180.172,525.358v-1.134l1.448-1.407c3.485-3.316,5.06-5.08,5.081-7.139c0-1.385-0.672-2.666-2.709-2.666
					c-1.238,0-2.268,0.63-2.896,1.154l-0.588-1.301c0.944-0.799,2.288-1.387,3.863-1.387c2.939,0,4.178,2.016,4.178,3.969
					c0,2.52-1.826,4.557-4.703,7.328l-1.092,1.008v0.041h6.131v1.533H180.172z"/>
				<path class="st3" d="M199.805,511.711v1.218l-5.942,12.43h-1.911l5.922-12.072v-0.043h-6.678v-1.532H199.805z"/>
			</g>
			<g>
				<path class="st3" d="M380.123,518.388c0,4.641-1.723,7.201-4.746,7.201c-2.666,0-4.472-2.498-4.514-7.012
					c0-4.578,1.974-7.098,4.745-7.098C378.484,511.479,380.123,514.042,380.123,518.388z M372.711,518.598
					c0,3.548,1.092,5.563,2.771,5.563c1.89,0,2.793-2.204,2.793-5.689c0-3.359-0.861-5.564-2.771-5.564
					C373.887,512.907,372.711,514.882,372.711,518.598z"/>
				<path class="st3" d="M381.972,524.267c0-0.777,0.524-1.322,1.26-1.322s1.239,0.545,1.239,1.322c0,0.756-0.483,1.322-1.26,1.322
					C382.476,525.589,381.972,525.022,381.972,524.267z"/>
				<path class="st3" d="M395.242,518.388c0,4.641-1.723,7.201-4.746,7.201c-2.666,0-4.472-2.498-4.514-7.012
					c0-4.578,1.974-7.098,4.745-7.098C393.604,511.479,395.242,514.042,395.242,518.388z M387.83,518.598
					c0,3.548,1.092,5.563,2.771,5.563c1.89,0,2.793-2.204,2.793-5.689c0-3.359-0.861-5.564-2.771-5.564
					C389.006,512.907,387.83,514.882,387.83,518.598z"/>
				<path class="st3" d="M397.385,523.237c0.525,0.336,1.742,0.861,3.023,0.861c2.373,0,3.107-1.512,3.086-2.646
					c-0.021-1.911-1.742-2.729-3.527-2.729h-1.028v-1.386h1.028c1.344,0,3.045-0.692,3.045-2.31c0-1.092-0.693-2.058-2.394-2.058
					c-1.092,0-2.142,0.483-2.729,0.903l-0.482-1.344c0.713-0.525,2.1-1.051,3.568-1.051c2.688,0,3.906,1.596,3.906,3.255
					c0,1.407-0.84,2.604-2.52,3.212v0.043c1.68,0.336,3.044,1.596,3.044,3.506c0,2.184-1.7,4.094-4.976,4.094
					c-1.533,0-2.877-0.482-3.549-0.924L397.385,523.237z"/>
			</g>
		</g>
		<g>
			<path class="st3" d="M520.109,518.673c0,4.64-1.723,7.202-4.746,7.202c-2.666,0-4.472-2.499-4.514-7.014
				c0-4.576,1.974-7.096,4.745-7.096C518.471,511.766,520.109,514.326,520.109,518.673z M512.697,518.883
				c0,3.549,1.092,5.564,2.771,5.564c1.89,0,2.793-2.205,2.793-5.69c0-3.359-0.861-5.563-2.771-5.563
				C513.873,513.193,512.697,515.166,512.697,518.883z"/>
			<path class="st3" d="M521.958,524.552c0-0.776,0.524-1.323,1.26-1.323s1.239,0.547,1.239,1.323c0,0.756-0.483,1.323-1.26,1.323
				C522.462,525.875,521.958,525.308,521.958,524.552z"/>
			<path class="st3" d="M535.229,518.673c0,4.64-1.723,7.202-4.746,7.202c-2.666,0-4.472-2.499-4.514-7.014
				c0-4.576,1.974-7.096,4.745-7.096C533.59,511.766,535.229,514.326,535.229,518.673z M527.816,518.883
				c0,3.549,1.092,5.564,2.771,5.564c1.89,0,2.793-2.205,2.793-5.69c0-3.359-0.861-5.563-2.771-5.563
				C528.992,513.193,527.816,515.166,527.816,518.883z"/>
			<path class="st3" d="M545.791,511.996v1.218l-5.942,12.43h-1.911l5.922-12.073v-0.041h-6.678v-1.533H545.791z"/>
		</g>
	</g>
</g>
</svg>
